<svg xmlns="http://www.w3.org/2000/svg" width="1273.881" height="321.027"><g data-name="Group 3067"><g data-name="Group 73"><path data-name="Path 44" d="M217.14.001a16.967 16.967 0 0 0-2.13.137c-9.628 2.36-15.834 9.973-15.689 18.977a20.463 20.463 0 0 0 2.363 10.273c1.033 2.292 3.781 6.126 4 6.794.668 1.992 1.109 2.306-.3 4.516-.145.218-2.8.737-2.8.887l-1.481 2.51c-14.51 8.936-12.96 8.432-17.33 21.352-1.708 5.1-6.956 26.8-8.588 27.614a3.082 3.082 0 0 0-1.852 2.892c-.221 3.684-1.046 5.553-.6 8.281.145 1.105.441 1.623 1.178 1.91-1.556 15.076-.145 28.078-.807 35.841a5.246 5.246 0 0 1-.951 2.51c-2.59 3.4-3.491 6.276-3.862 12.183-.221 3.411 1.852 3.411 1.481 5.184s.51 2.715 1.178 3.82a1.149 1.149 0 0 0 .832.669 3.121 3.121 0 0 1 1.619.887 3.253 3.253 0 0 0 1.852 1.173c1.556.368 2.892-4.434 2.892-4.434.3 1.992 3.623 2.674 3.4.969-.592-3.547 1.544-5.539 2.363-11.815a16.409 16.409 0 0 0-1.323-8.568c.819-8.268 5.034-30.97 6.295-35.254 1.04-.15.895-1.323 1.411-3.384.221-.969 1.178 12.5 1.619 26.018.227 6.494-5.545 15.062 1.342 27.027a7.427 7.427 0 0 1 .951 4.5c-2.445 23.344-3.409 42.035-4.442 48.693a51.024 51.024 0 0 1-2.224 8.786c-2.073 3.029-4.65 7.6-4.65 7.667-5.7 10.191-10.144 22.17-13.326 30.22l-3.862 8.2c-.076.15-.069.314-.139.464a20.8 20.8 0 0 0-.674 2.483c-.441 1.337-8.746 10.437-5.784 13.029 6.143 5.321 6.528 3.4 11.638 7.381 4.222 3.329 7.618 3.247 11.247 3.534l15.551-.068c1.405 0 1.852-1.105 1.777-2.51a4.435 4.435 0 0 0-2.357-3.4 11.739 11.739 0 0 0-3.566-.669 6.885 6.885 0 0 1-5.179-2.892c-1.928-2.579-4.6-6.412-5.854-8.254 1.405.068 2.659-.014 2.659-.232.076-.669 1.405-3.479 5.551-12.2.819-1.774 1.708-3.452 2.527-5.007 3.327-5.539 7.107-11.979 8.815-15.376 3.85-7.463 8.059-13.889 9.76-20.315 1.928-7.313 6.9-24.749 6.9-24.749-.227.668 3.478 5.839 5.923 10.71.888 1.705 2.6 8.568 2.892 10.41.888 4.8 2.659 14.421 3.768 17.668 2.6 7.831 7.177 20.328 11.178 29.415l4.675 12.183a2.283 2.283 0 0 0 2.06 1.474c0 4.584.3 14.544 3.258 14.243 11.329-1.105 1.04-1.46 15.179-1.242a31.854 31.854 0 0 0 20.6-7.831 24.438 24.438 0 0 0 3.031-3.179c1.109-1.774-2.073-4.216-5.992-3.261-6.591 1.624-10.749.45-12.753-.437a6.5 6.5 0 0 1-1.917-1.465c-1.033-1.255-2.514-2.578-3.327-3.4.958-.368 1.695-.737 1.55-1.037-.3-.587-2.583-6.781-5.7-15.717-1.481-4.666-2.886-9.1-3.7-11.76-5.557-18.091-7.189-29.633-8.078-38.569-.737-7.613-3.7-10.573-6.295-20.683l-10.361-32.646c-.668-2.879.743-4.366.743-7.245-.076-6.576-.737-18.691.668-25.117 7.334 5.676 21.549 9.6 22.211 10.642a15.592 15.592 0 0 0 7.706 5.771 5.308 5.308 0 0 1 2.665 2.142l1.109 1.173c.813.45 2.369.655 4.814-1.269l1.922-1.678c.592-.6 1.342-2.005.9-2.824l.51-1.61a2.023 2.023 0 0 0-.139-2.456 36.786 36.786 0 0 0-4.908-4.57 4.123 4.123 0 0 0-2.728-.9l-1.922-.5a15.951 15.951 0 0 0-1.922-.3c-1.852-.068-6.818-1.173-13.257-10.041-2.961-4.066-7.259-7.681-10.667-10.71a4.666 4.666 0 0 0-.51-3.329c-.888-1.474-2.533-1.924-4.165-3.984-1.852-11.01-.649-11.829-1.317-18.4-1.26-12.784-5.494-17.5-8.3-22.539 0 0 .75-1.173.158-1.842-.441-.437-4.669-3.766-4.745-3.766-1.33-.805 1.115-2.879 1.852-4.5.888-1.842 1.695-2.292 5.7-2.074 2.438.068 3.554-.955 3.327-3.1-.221-2.81 2.092-2.374 1.2-4.666-.069-.218.5-.859.58-1.01.668-.887-.523-1.924.069-3.561.372-.955 2.23-1.023 2.086-3.015-.227-2.592-4.751-3.465-3.566-6.726 1.556-4.134-.649-8.718-.649-8.718 1.556-1.255 1.317-1.992-1.2-5.607C228.564.751 220.858-.027 217.14.001z" fill="#41b786" fill-rule="evenodd"/></g><path data-name="Path 1560" d="M0 317.527h422.361v-137.3h413.418V40.582h438.1" fill="none" stroke="#dbdbdb" stroke-width="7"/></g></svg>